<?xml version="1.0" encoding="utf-8"?>
<!-- Generator: Adobe Illustrator 23.0.1, SVG Export Plug-In . SVG Version: 6.00 Build 0)  -->
<svg version="1.2" baseProfile="tiny" id="Layer_1" xmlns="http://www.w3.org/2000/svg" xmlns:xlink="http://www.w3.org/1999/xlink"
	 x="0px" y="0px" viewBox="0 0 1000 1000" xml:space="preserve">
<path d="M-86.46,96.56h-37.64c-15.59,0-28.35-12.76-28.35-28.35V30.57c0-15.59,12.76-28.35,28.35-28.35h37.64
	c15.59,0,28.35,12.76,28.35,28.35v37.64C-58.11,83.8-70.87,96.56-86.46,96.56z"/>
<g>
	<path fill="#FFFFFF" d="M1330.64,279.3c-1.49,1.33-3.23,2.67-5.23,4c-2,1.33-4.13,2.69-6.39,4.08c-2.26,1.38-4.33,2.87-6.23,4.46
		c-1.9,1.59-3.49,3.36-4.77,5.31c-1.28,1.95-1.98,4.1-2.08,6.46h12.77v16.93h-14.93c4.51,10.57,8.18,21.06,11,31.47
		c2.82,10.41,4.23,21.42,4.23,33.01h-4.62l-21.08-12.62l-6.46-27.54l-2-2.15l-6.46,27.54c-0.41,1.54-1.72,3.21-3.92,5
		c-2.21,1.8-4.72,3.44-7.54,4.92c-2.82,1.49-5.64,2.75-8.46,3.77c-2.82,1.03-5,1.54-6.54,1.54c0-5.74,0.38-11.21,1.15-16.39
		c0.77-5.18,1.82-10.26,3.15-15.23c1.33-4.97,2.82-9.92,4.46-14.85c1.64-4.92,3.33-10,5.08-15.23c0.1-0.62-0.05-1.69-0.46-3.23
		h-12.31v-16.93h12.77c-0.62-0.82-1.69-2.1-3.23-3.85c-1.54-1.74-3.33-3.72-5.39-5.92c-2.05-2.2-4.21-4.49-6.46-6.85
		c-2.26-2.36-4.31-4.51-6.15-6.46c-1.85-1.95-4.05-4.15-6.62-6.62c0-1.64,0.62-2.62,1.85-2.92s2.51-0.46,3.85-0.46
		c3.39,0,7.03,0.92,10.93,2.77c3.9,1.85,7.72,4.1,11.46,6.77c3.74,2.67,7.26,5.49,10.54,8.46c3.28,2.98,6.05,5.54,8.31,7.69
		c3.18-1.95,6.49-4.39,9.93-7.31c3.44-2.92,6.95-5.74,10.54-8.46c3.59-2.72,7.31-5.05,11.16-7c3.85-1.95,7.82-2.92,11.93-2.92
		c0.62,0,1.25,0.03,1.92,0.08c0.67,0.05,1.28,0.23,1.85,0.54c0.56,0.31,0.97,0.77,1.23,1.39c0.25,0.62,0.28,1.44,0.08,2.46
		C1333.08,276.53,1332.13,277.97,1330.64,279.3z"/>
</g>
<g>
	<path fill="#FFFFFF" d="M76.85,807.7V653.88h76.97V500.06h76.96V346.12h76.86v-76.85H0V192.3h461.57v153.82h-76.96v153.93h-76.96
		v153.82h-76.86V807.7H76.85z"/>
	<path fill="#FFFFFF" d="M615.28,807.7V653.88h76.96V500.06h76.97V346.12h76.85v-76.85H538.43V192.3H1000v153.82h-76.96v153.93
		h-76.96v153.82h-76.85V807.7H615.28z"/>
</g>
</svg>
