<?xml version="1.0" encoding="utf-8"?>
<!-- Generator: Adobe Illustrator 23.0.1, SVG Export Plug-In . SVG Version: 6.00 Build 0)  -->
<svg version="1.2" baseProfile="tiny" id="Layer_1" xmlns="http://www.w3.org/2000/svg" xmlns:xlink="http://www.w3.org/1999/xlink"
	 x="0px" y="0px" viewBox="0 0 1000 1000" xml:space="preserve">
<path d="M-86.46,96.56h-37.64c-15.59,0-28.35-12.76-28.35-28.35V30.57c0-15.59,12.76-28.35,28.35-28.35h37.64
	c15.59,0,28.35,12.76,28.35,28.35v37.64C-58.11,83.8-70.87,96.56-86.46,96.56z"/>
<g>
	<path fill="#FFFFFF" d="M1324.85,807.7V653.88h76.97V500.06h76.96V346.12h76.86v-76.85H1248V192.3h461.57v153.82h-76.96v153.93
		h-76.96v153.82h-76.86V807.7H1324.85z"/>
	<path fill="#FFFFFF" d="M1863.28,807.7V653.88h76.96V500.06h76.97V346.12h76.85v-76.85h-307.64V192.3H2248v153.82h-76.96v153.93
		h-76.97v153.82h-76.85V807.7H1863.28z"/>
</g>
<g>
	<linearGradient id="SVGID_1_" gradientUnits="userSpaceOnUse" x1="-342.9747" y1="-394.7355" x2="1097.4136" y2="1045.6527">
		<stop  offset="0" style="stop-color:#DDA44C"/>
		<stop  offset="0.0674" style="stop-color:#AE7937"/>
		<stop  offset="0.1798" style="stop-color:#EABE69"/>
		<stop  offset="0.2291" style="stop-color:#ECC46E"/>
		<stop  offset="0.2975" style="stop-color:#F2D67C"/>
		<stop  offset="0.3503" style="stop-color:#F8E98B"/>
		<stop  offset="0.3688" style="stop-color:#E4CC74"/>
		<stop  offset="0.3911" style="stop-color:#D1B15E"/>
		<stop  offset="0.4154" style="stop-color:#C29C4D"/>
		<stop  offset="0.4423" style="stop-color:#B78D41"/>
		<stop  offset="0.4739" style="stop-color:#B1843A"/>
		<stop  offset="0.5213" style="stop-color:#AF8138"/>
		<stop  offset="0.5215" style="stop-color:#AF8138"/>
		<stop  offset="0.554" style="stop-color:#C99C4E"/>
		<stop  offset="0.587" style="stop-color:#DBAF5D"/>
		<stop  offset="0.6209" style="stop-color:#E6BA66"/>
		<stop  offset="0.6567" style="stop-color:#EABE69"/>
		<stop  offset="0.7646" style="stop-color:#F8E98B"/>
		<stop  offset="0.7662" style="stop-color:#F7E789"/>
		<stop  offset="0.8192" style="stop-color:#D8B856"/>
		<stop  offset="0.8593" style="stop-color:#C49A37"/>
		<stop  offset="0.8815" style="stop-color:#BD8F2B"/>
		<stop  offset="0.9551" style="stop-color:#DDA44C"/>
		<stop  offset="0.9888" style="stop-color:#F0D478"/>
	</linearGradient>
	<path fill="url(#SVGID_1_)" d="M883.76,83.41c-12.73,11.41-27.64,22.83-44.75,34.22c-17.11,11.41-35.33,23.03-54.63,34.88
		c-19.31,11.85-37.08,24.58-53.31,38.17c-16.25,13.61-29.84,28.75-40.8,45.41c-10.98,16.68-16.91,35.1-17.77,55.28h109.25v144.78
		H654.08c38.6,90.39,69.96,180.12,94.11,269.17c24.12,89.08,36.19,183.18,36.19,282.33h-39.49L564.57,879.74l-55.28-235.61
		l-17.11-18.43l-55.28,235.61c-3.52,13.16-14.7,27.43-33.56,42.78c-18.88,15.36-40.37,29.41-64.5,42.12
		c-24.14,12.73-48.27,23.49-72.39,32.25c-24.15,8.78-42.78,13.16-55.94,13.16c0-49.13,3.29-95.86,9.87-140.18
		c6.58-44.3,15.57-87.73,26.98-130.31c11.39-42.55,24.12-84.89,38.17-127.02c14.03-42.12,28.51-85.55,43.44-130.31
		c0.86-5.26-0.45-14.48-3.95-27.64h-105.3V291.38h109.25c-5.27-7.01-14.48-17.98-27.64-32.91c-13.16-14.91-28.53-31.79-46.07-50.68
		c-17.56-18.86-35.99-38.38-55.28-58.57c-19.31-20.18-36.85-38.6-52.65-55.28c-15.8-16.66-34.67-35.54-56.6-56.6
		c0-14.03,5.26-22.38,15.79-25.01s21.49-3.95,32.91-3.95c28.96,0,60.09,7.9,93.45,23.69c33.34,15.8,66.02,35.11,98.06,57.91
		c32.02,22.83,62.07,46.95,90.16,72.39c28.07,25.46,51.77,47.38,71.07,65.81c27.19-16.66,55.49-37.51,84.9-62.52
		c29.39-25.01,59.43-49.13,90.16-72.39c30.71-23.24,62.52-43.21,95.43-59.89c32.9-16.66,66.9-25.01,102.01-25.01
		c5.27,0,10.73,0.23,16.45,0.66c5.7,0.46,10.96,1.98,15.8,4.61c4.81,2.64,8.33,6.58,10.53,11.85c2.18,5.26,2.41,12.3,0.66,21.06
		C904.59,59.72,896.47,72.02,883.76,83.41z"/>
</g>
</svg>
